<?xml version="1.0" encoding="UTF-8"?>
<svg version="1.1" xmlns="http://www.w3.org/2000/svg" width="512" height="512">
<path d="M0 0 C1.01252335 0.00081573 1.01252335 0.00081573 2.04550171 0.00164795 C17.47803315 0.05905637 31.28446798 1.27583616 42.86328125 12.48046875 C52.01411658 22.20009457 55.00128093 32.29802115 54.95874023 45.46801758 C54.96396698 46.32787766 54.96919373 47.18773773 54.97457886 48.07365417 C54.98475162 49.92489124 54.99058741 51.77615636 54.99246025 53.62742043 C54.99615439 56.56780168 55.01296425 59.50785473 55.03321838 62.44816589 C55.0883359 70.80270251 55.11924668 79.15728636 55.14379883 87.51196289 C55.15976466 92.63827397 55.19007487 97.76435041 55.22856331 102.89053917 C55.24013126 104.83156513 55.24614293 106.77263319 55.24624443 108.71369362 C55.24732114 123.8245539 55.61919711 138.29815924 66.1875 150.1875 C70.43846283 153.90709247 74.15699787 156.82110827 79.4375 158.9375 C81.00757813 159.57558594 81.00757813 159.57558594 82.609375 160.2265625 C85.28617438 161.22526684 87.94023488 162.03926313 90.6875 162.8125 C93.83880415 163.85340264 94.78585529 164.47335529 97.25 166.9375 C99.12729294 171.42667878 99.86012896 175.59708324 98.6875 180.375 C95.08120848 185.95533504 91.67959472 187.56361969 85.4375 189.375 C75.79851745 192.48610291 67.30066504 196.54036632 61.6875 205.375 C57.12868823 214.55439605 55.5393897 222.52373499 55.5456543 232.66235352 C55.54044266 234.03685921 55.54044266 234.03685921 55.53512573 235.43913269 C55.52779349 237.42302919 55.52243467 239.40693375 55.51883507 241.39084053 C55.51163345 244.54122066 55.49593774 247.69144829 55.47749329 250.84178162 C55.42520888 259.79725 55.37710589 268.75263432 55.36157227 277.70825195 C55.35143519 283.19426567 55.32196575 288.67989367 55.28025246 294.16575432 C55.26801833 296.24550381 55.26280717 298.32530797 55.26505089 300.40509224 C55.27839256 316.81303871 54.40731254 330.69591455 42.6875 343.375 C31.29409542 353.39117985 17.20141889 354.57328623 2.67163086 354.61523438 C0.62638467 354.62499339 -1.41787699 354.65610994 -3.46289062 354.6875 C-4.76548828 354.69265625 -6.06808594 354.6978125 -7.41015625 354.703125 C-8.59101807 354.7124707 -9.77187988 354.72181641 -10.98852539 354.73144531 C-15.54911015 354.24239252 -18.93550599 352.78116761 -22.15625 349.4921875 C-24.27606097 345.61064174 -24.04719904 341.65512742 -23.3125 337.375 C-21.41915263 333.75515197 -19.24763731 331.68671244 -15.3125 330.375 C-13.64563256 330.26114968 -11.97511371 330.19700559 -10.3046875 330.1640625 C-9.31726563 330.13570313 -8.32984375 330.10734375 -7.3125 330.078125 C-5.25277206 330.0266318 -3.1928539 329.98219304 -1.1328125 329.9453125 C6.11276531 329.72006138 13.45414577 329.26800115 19.0625 324.25 C24.35835604 314.88040854 24.83641259 304.84084247 24.8293457 294.29785156 C24.83282013 293.43959778 24.83629456 292.58134399 24.83987427 291.69708252 C24.84717618 289.84910974 24.85255088 288.00112851 24.85616493 286.15314484 C24.8634017 283.2167523 24.87912077 280.2805201 24.89750671 277.34417725 C24.9496407 269.00063262 24.99790817 260.65718062 25.01342773 252.31347656 C25.02357043 247.19357152 25.0530465 242.07407921 25.09474754 236.95433807 C25.10696624 235.0169361 25.11219572 233.07947564 25.10994911 231.14203644 C25.09721022 216.57275124 25.60139572 203.11673435 36 191.875 C36.886875 191.05 37.77375 190.225 38.6875 189.375 C39.15542969 188.90191406 39.62335938 188.42882812 40.10546875 187.94140625 C44.73474659 183.54073472 49.9688481 181.19283547 55.796875 178.671875 C58.79642092 177.42191956 58.79642092 177.42191956 61.6875 175.375 C60.12902344 174.66537109 60.12902344 174.66537109 58.5390625 173.94140625 C44.9065036 167.55390596 33.6584451 159.67365298 27.875 145.1875 C25.97644495 139.09213905 25.5357042 133.3599576 25.51391602 127.00561523 C25.507229 126.18681381 25.50054199 125.36801239 25.49365234 124.5243988 C25.47965193 122.75332024 25.46774215 120.98222416 25.45770454 119.2111187 C25.44119029 116.39679022 25.41794535 113.58258971 25.39280701 110.76832581 C25.32234252 102.76871214 25.2621929 94.76904493 25.21069336 86.76928711 C25.1786619 81.86691104 25.13732399 76.96468158 25.09049797 72.06242561 C25.07461723 70.20596041 25.06223256 68.34946154 25.05359077 66.49294853 C25.7394617 47.29813478 25.7394617 47.29813478 19.2722168 29.87841797 C12.70049121 23.64383375 1.55822306 24.91850129 -6.78125 24.84765625 C-7.80734375 24.82574219 -8.8334375 24.80382812 -9.890625 24.78125 C-11.27362793 24.77061523 -11.27362793 24.77061523 -12.68457031 24.75976562 C-16.67926598 24.17488636 -19.34569352 22.39257969 -22.09765625 19.49609375 C-24.29572214 15.65831311 -23.93673921 11.65450662 -23.3125 7.375 C-18.34663352 -1.45320707 -8.91001406 -0.02657102 0 0 Z " fill="#006fee" transform="translate(218.3125,78.625)"/>
</svg>
