<?xml version="1.0" encoding="UTF-8"?>
<svg version="1.1" xmlns="http://www.w3.org/2000/svg" width="512" height="512">
<path d="M0 0 C2.04524619 -0.00975902 4.08950785 -0.04087556 6.13452148 -0.07226562 C7.43711914 -0.07742187 8.7397168 -0.08257812 10.08178711 -0.08789062 C11.26264893 -0.09723633 12.44351074 -0.10658203 13.66015625 -0.11621094 C18.22074101 0.37284185 21.60713685 1.83406676 24.82788086 5.12304688 C26.94769183 9.00459264 26.7188299 12.96010696 25.98413086 17.24023438 C24.09078349 20.86008241 21.91926817 22.92852194 17.98413086 24.24023438 C16.23254162 24.35454154 14.4774201 24.41833984 12.72241211 24.45117188 C11.16683594 24.49371094 11.16683594 24.49371094 9.57983398 24.53710938 C7.41072546 24.58872409 5.24143205 24.63312993 3.07202148 24.66992188 C-4.1552813 24.88419645 -10.7589181 25.24736045 -16.32836914 30.36523438 C-21.5102462 39.19361752 -22.15981065 48.85060104 -22.17358398 58.8684082 C-22.1786647 59.69071426 -22.18374542 60.51302032 -22.1889801 61.36024475 C-22.19961544 63.13238808 -22.20826194 64.90454426 -22.21509933 66.67670631 C-22.22698997 69.49065032 -22.24646738 72.30444775 -22.26821899 75.11833191 C-22.32949843 83.11440087 -22.38380359 91.11045145 -22.41723633 99.10668945 C-22.43828656 104.01141697 -22.47366617 108.91587037 -22.51799393 113.82044029 C-22.5320653 115.6785527 -22.54085612 117.53671353 -22.54404831 119.39487648 C-22.57243989 134.33704947 -23.48116621 148.11712758 -33.95336914 159.80273438 C-40.61655394 166.09819375 -51.81166471 173.24023438 -61.01586914 173.24023438 C-61.01586914 173.90023437 -61.01586914 174.56023437 -61.01586914 175.24023438 C-60.13286133 175.35367188 -59.24985352 175.46710938 -58.34008789 175.58398438 C-47.27760267 177.76788275 -35.92975544 186.66577302 -29.51586914 195.74023438 C-24.31964151 204.30577387 -22.87354547 213.2130359 -22.84228516 223.06274414 C-22.83559814 223.94152725 -22.82891113 224.82031036 -22.82202148 225.72572327 C-22.80799799 227.63051039 -22.7960954 229.53531404 -22.78607368 231.44012642 C-22.7695984 234.46412739 -22.74635468 237.48800734 -22.72117615 240.51194763 C-22.65060378 249.10889592 -22.59051588 257.70589496 -22.5390625 266.30297852 C-22.50708081 271.56728769 -22.46575329 276.83145896 -22.41886711 282.09565544 C-22.40295584 284.09250317 -22.39058478 286.08938261 -22.38195992 288.0862751 C-23.082154 307.25182726 -23.082154 307.25182726 -16.60058594 324.70141602 C-10.10941717 331.00457989 1.14558595 329.69700644 9.45288086 329.76757812 C10.99202148 329.80044922 10.99202148 329.80044922 12.56225586 329.83398438 C13.94525879 329.84461914 13.94525879 329.84461914 15.35620117 329.85546875 C19.35089684 330.44034801 22.01732438 332.22265469 24.76928711 335.11914062 C26.967353 338.95692126 26.60837007 342.96072776 25.98413086 347.24023438 C23.64516577 351.39839453 21.43368289 352.79626444 16.98413086 354.24023438 C12.22602363 354.69086291 7.44883883 354.62948074 2.67163086 354.61523438 C1.9966153 354.61469055 1.32159973 354.61414673 0.62612915 354.61358643 C-14.80640229 354.55617801 -28.61283713 353.33939821 -40.19165039 342.13476562 C-49.49905586 332.2488377 -52.32787808 322.05626649 -52.28710938 308.68823242 C-52.29233612 307.77960449 -52.29756287 306.87097656 -52.302948 305.93481445 C-52.31312656 303.9771718 -52.31895758 302.01950255 -52.32082939 300.06183434 C-52.3245205 296.95343525 -52.34132233 293.84534746 -52.36158752 290.73701477 C-52.41673402 281.90456964 -52.44762316 273.07207961 -52.47216797 264.23950195 C-52.48812538 258.82142362 -52.51842729 253.4035677 -52.55693245 247.98560524 C-52.56850796 245.93293446 -52.57451214 243.88022379 -52.57461357 241.82752037 C-52.57567345 226.08678452 -52.87076153 211.71516748 -63.76196289 199.24023438 C-70.23589444 192.99511122 -78.45649049 190.25266772 -86.95336914 187.80273438 C-91.43002818 186.3213672 -93.64942639 184.43876183 -96.01586914 180.24023438 C-96.91621823 175.29635321 -96.51468179 171.43304723 -94.57836914 166.80273438 C-91.6359974 163.86036263 -89.56186134 163.11763018 -85.64086914 162.00195312 C-74.80715339 158.85824096 -65.00573098 154.24052789 -58.64086914 144.61523438 C-52.58293472 133.08819707 -52.59233718 121.10382257 -52.63574409 108.41026306 C-52.64497824 105.45660116 -52.63449259 102.50355755 -52.61912537 99.54992676 C-52.57935922 91.1620358 -52.57781926 82.77420017 -52.58007812 74.38623047 C-52.58012953 69.22934379 -52.56081765 64.07279434 -52.53074455 58.91600037 C-52.52003305 56.02844377 -52.53197832 53.14156208 -52.54457092 50.25402832 C-52.5140936 35.22764712 -50.64845472 22.74310277 -40.01586914 11.24023438 C-28.62246456 1.22405452 -14.52978804 0.04194814 0 0 Z " fill="#006fee" transform="translate(291.015869140625,78.759765625)"/>
</svg>
