<?xml version="1.0" encoding="UTF-8"?>
<svg version="1.1" xmlns="http://www.w3.org/2000/svg" width="670" height="702">
<path d="M0 0 C2.95959376 -0.00972591 5.91849712 -0.04086581 8.87792969 -0.07226562 C24.50857556 -0.16133938 38.42927106 1.72032587 53.28417969 6.86523438 C54.29746338 7.21078369 55.31074707 7.55633301 56.35473633 7.91235352 C72.80334255 13.63366359 88.38150971 20.79764368 103.59667969 29.24023438 C104.82837891 29.913125 104.82837891 29.913125 106.08496094 30.59960938 C107.45535055 31.35319462 108.82136782 32.11479253 110.18261719 32.88476562 C112.17866885 34.00552603 114.18452669 35.1010559 116.19824219 36.18945312 C125.50753414 41.2637478 134.11507136 46.88846892 142.59667969 53.24023438 C143.67066348 54.03612444 144.74487806 54.83170319 145.81933594 55.62695312 C148.75786122 57.81505855 151.67908307 60.02433821 154.59667969 62.24023438 C155.50289063 62.91570313 156.40910156 63.59117188 157.34277344 64.28710938 C158.1690625 64.91101563 158.99535156 65.53492187 159.84667969 66.17773438 C160.57371094 66.72300781 161.30074219 67.26828125 162.04980469 67.83007812 C162.56027344 68.29542969 163.07074219 68.76078125 163.59667969 69.24023438 C163.59667969 69.90023437 163.59667969 70.56023437 163.59667969 71.24023438 C164.15871094 71.47742188 164.72074219 71.71460937 165.29980469 71.95898438 C168.1156201 73.52971134 170.07623385 75.45494902 172.34667969 77.74023438 C173.14589844 78.53429687 173.94511719 79.32835938 174.76855469 80.14648438 C176.59667969 82.24023438 176.59667969 82.24023438 176.59667969 84.24023438 C177.58667969 84.57023437 178.57667969 84.90023437 179.59667969 85.24023438 C181.44675663 87.49685689 183.16060673 89.74115622 184.84667969 92.11523438 C185.3382959 92.80214355 185.82991211 93.48905273 186.33642578 94.19677734 C187.32008186 95.57971056 188.29916903 96.96590604 189.2734375 98.35546875 C190.3541099 99.89472907 191.45325246 101.421008 192.55761719 102.94335938 C207.09968964 124.10787796 214.12247036 151.86513121 215.59667969 177.24023438 C215.65017578 178.0982666 215.70367187 178.95629883 215.75878906 179.84033203 C216.23253246 187.63619771 216.67228756 195.42742095 216.59667969 203.24023438 C218.08554687 203.3871875 218.08554687 203.3871875 219.60449219 203.53710938 C228.95818007 204.53489796 237.61834772 206.3396893 246.59667969 209.24023438 C247.99901076 209.67777501 249.4013551 210.11527311 250.80371094 210.55273438 C271.30563785 217.06293197 290.46505976 226.15525329 309.28417969 236.49023438 C310.03900635 236.90257324 310.79383301 237.31491211 311.5715332 237.73974609 C315.55802015 239.95921313 319.07569904 242.31434905 322.59667969 245.24023438 C323.847069 246.02384393 325.11566414 246.78006898 326.40917969 247.49023438 C327.46105469 248.06773437 328.51292969 248.64523438 329.59667969 249.24023438 C329.59667969 249.90023437 329.59667969 250.56023437 329.59667969 251.24023438 C330.61761719 251.58054688 330.61761719 251.58054688 331.65917969 251.92773438 C335.29555058 253.55249584 338.62497232 255.56826694 341.59667969 258.24023438 C341.59667969 258.90023438 341.59667969 259.56023437 341.59667969 260.24023438 C342.58667969 260.57023437 343.57667969 260.90023438 344.59667969 261.24023438 C344.59667969 261.90023438 344.59667969 262.56023437 344.59667969 263.24023438 C345.43199219 263.58054687 345.43199219 263.58054687 346.28417969 263.92773438 C348.59310823 265.23820733 350.22623991 266.71724202 352.04980469 268.63085938 C353.24418688 269.87349943 354.46911747 271.08682215 355.70605469 272.28710938 C360.44532984 276.89915566 365.12614809 281.56489447 368.59667969 287.24023438 C368.59667969 287.90023438 368.59667969 288.56023437 368.59667969 289.24023438 C369.25667969 289.24023438 369.91667969 289.24023438 370.59667969 289.24023438 C373.59667969 293.62484976 373.59667969 293.62484976 373.59667969 296.24023438 C374.25667969 296.24023438 374.91667969 296.24023438 375.59667969 296.24023438 C385.70312648 313.80045971 395.10188967 331.79294715 401.78955078 350.95751953 C402.73743827 353.63832655 403.72297168 356.30404712 404.70996094 358.97070312 C411.74697759 378.07160422 417.82537953 397.28165967 422.55639648 417.08618164 C423.80223316 422.27098847 425.24554746 427.28463116 426.98535156 432.32421875 C427.70151026 434.56879281 428.05611208 436.70428861 428.22167969 439.05273438 C428.43958915 441.90112232 428.85299152 444.48104351 429.59667969 447.24023438 C431.06239795 453.22906759 432.00453156 459.10727158 432.59667969 465.24023438 C432.78297098 466.82371038 432.97045531 468.40704651 433.15917969 469.99023438 C433.50994401 473.09854591 433.59667969 476.11201975 433.59667969 479.24023438 C433.75868362 479.99790604 433.92068756 480.7555777 434.08760071 481.53620911 C434.61536003 484.33945691 434.73047133 486.90392199 434.74194336 489.75463867 C434.75151314 491.37869881 434.75151314 491.37869881 434.76127625 493.03556824 C434.76294548 494.78236626 434.76294548 494.78236626 434.76464844 496.56445312 C434.76797684 497.77986282 434.77130524 498.99527252 434.7747345 500.24751282 C434.77979741 502.82556786 434.78214302 505.40362945 434.78198242 507.98168945 C434.78414649 511.86811649 434.80224669 515.75424902 434.82128906 519.640625 C434.85127026 532.99207317 434.5012695 546.02019398 432.59667969 559.24023438 C432.45133789 560.41102539 432.30599609 561.58181641 432.15625 562.78808594 C431.1907564 570.44868217 428.90170321 579.18341348 422.59667969 584.24023438 C419.40917969 584.42773438 419.40917969 584.42773438 416.59667969 584.24023438 C415.93667969 582.59023438 415.27667969 580.94023438 414.59667969 579.24023438 C413.93667969 579.24023438 413.27667969 579.24023438 412.59667969 579.24023438 C412.54950487 572.25981269 412.52324762 565.27941454 412.53027344 558.29882812 C412.53111938 556.5285022 412.53111938 556.5285022 412.53198242 554.72241211 C412.61696351 550.14850563 412.97050208 545.61615907 413.37011719 541.06054688 C416.00328685 496.6598584 410.72925173 452.91819267 398.59667969 410.24023438 C398.24331543 408.97699341 398.24331543 408.97699341 397.8828125 407.68823242 C392.10597198 386.45040694 392.10597198 386.45040694 384.62011719 365.78320312 C383.37890711 362.6991277 382.30710217 359.56992875 381.22167969 356.42773438 C379.20200192 350.73591521 376.91222432 345.28118304 374.30761719 339.83398438 C373.04374319 337.17927186 371.82608692 334.5211905 370.63574219 331.83398438 C363.4643897 315.85909875 354.12834294 299.36398109 341.37792969 287.10742188 C339.59667969 285.24023438 339.59667969 285.24023438 339.59667969 283.24023438 C338.93667969 283.24023438 338.27667969 283.24023438 337.59667969 283.24023438 C337.59667969 282.58023437 337.59667969 281.92023438 337.59667969 281.24023438 C336.60667969 280.91023438 335.61667969 280.58023437 334.59667969 280.24023438 C334.59667969 279.58023437 334.59667969 278.92023438 334.59667969 278.24023438 C333.73042969 277.83804688 333.73042969 277.83804688 332.84667969 277.42773438 C330.54117926 276.21094248 328.57611776 274.93689558 326.59667969 273.24023438 C326.59667969 272.58023437 326.59667969 271.92023438 326.59667969 271.24023438 C326.01007568 270.96646973 325.42347168 270.69270508 324.8190918 270.41064453 C322.66438419 269.27589024 320.93698508 268.0300202 319.03808594 266.51367188 C314.1486203 262.78696569 308.90336159 259.84088799 303.53417969 256.86523438 C302.518479 256.29796631 301.50277832 255.73069824 300.45629883 255.14624023 C297.50708235 253.50357648 294.55274214 251.87053816 291.59667969 250.24023438 C290.83742188 249.8185498 290.07816406 249.39686523 289.29589844 248.96240234 C271.68943561 239.20394458 252.93711611 231.78520714 233.59667969 226.24023438 C232.87222656 226.02496094 232.14777344 225.8096875 231.40136719 225.58789062 C225.87559307 224.0554391 220.29263366 223.63811351 214.59667969 223.24023438 C214.65082031 224.34238281 214.70496094 225.44453125 214.76074219 226.58007812 C214.75372355 231.90371391 213.42232341 236.71082389 211.97167969 241.80273438 C211.69952637 242.77146484 211.42737305 243.74019531 211.14697266 244.73828125 C205.83920542 263.17933076 198.14242322 278.64065117 185.59667969 293.24023438 C185.0565625 294.00078125 184.51644531 294.76132812 183.95996094 295.54492188 C183.51007813 296.104375 183.06019531 296.66382813 182.59667969 297.24023438 C181.93667969 297.24023438 181.27667969 297.24023438 180.59667969 297.24023438 C180.26667969 298.23023438 179.93667969 299.22023438 179.59667969 300.24023438 C173.51722858 305.93971978 166.69692983 310.89239681 159.59667969 315.24023438 C158.81421875 315.73136719 158.03175781 316.2225 157.22558594 316.72851562 C151.59848889 320.04310703 145.82078275 322.39486355 139.65917969 324.49023438 C138.9444751 324.73644531 138.22977051 324.98265625 137.4934082 325.23632812 C122.61527165 330.07485518 99.54342123 334.06915602 85.06933594 326.72851562 C82.3894504 325.09384621 79.98679993 323.27219119 77.59667969 321.24023438 C76.81035156 320.57378906 76.02402344 319.90734375 75.21386719 319.22070312 C73.5048248 317.62894796 71.95904183 316.13524939 70.59667969 314.24023438 C70.59667969 313.58023437 70.59667969 312.92023438 70.59667969 312.24023438 C69.93667969 312.24023438 69.27667969 312.24023438 68.59667969 312.24023438 C61.80020985 299.41670637 57.33893097 285.91388545 61.72167969 271.36523438 C67.52355399 257.13166424 77.95425442 246.66851789 90.59667969 238.24023438 C91.58667969 238.24023438 92.57667969 238.24023438 93.59667969 238.24023438 C93.59667969 237.58023438 93.59667969 236.92023438 93.59667969 236.24023438 C94.67046875 235.63695312 95.74425781 235.03367188 96.85058594 234.41210938 C98.28679112 233.60483064 99.72298863 232.79753825 101.15917969 231.99023438 C101.86365234 231.59449219 102.568125 231.19875 103.29394531 230.79101562 C103.99326172 230.39785156 104.69257813 230.0046875 105.41308594 229.59960938 C106.11369141 229.20596191 106.81429687 228.81231445 107.53613281 228.40673828 C109.48245855 227.30489653 111.41660332 226.18385633 113.35058594 225.06054688 C122.73617939 219.79738617 133.43552498 216.703391 143.59667969 213.24023438 C144.28101074 213.00626953 144.9653418 212.77230469 145.67041016 212.53125 C160.31753709 207.57910924 175.55986196 204.0283419 191.09667969 204.17773438 C192.32386719 204.18675781 193.55105469 204.19578125 194.81542969 204.20507812 C196.19214844 204.22248047 196.19214844 204.22248047 197.59667969 204.24023438 C198.07453444 163.83496052 190.70584618 124.09809322 161.99511719 93.91210938 C160.59667969 92.24023437 160.59667969 92.24023437 160.59667969 90.24023438 C159.60667969 89.91023438 158.61667969 89.58023438 157.59667969 89.24023438 C156.4617762 88.1397219 155.33347768 87.03167356 154.23730469 85.89257812 C145.71117873 77.30555127 136.41226889 70.30209234 126.22705078 63.84448242 C123.04483151 61.82559629 119.8917909 59.77697875 116.78027344 57.65039062 C109.28286391 52.52725683 101.82335829 48.13013302 93.59667969 44.24023438 C91.60118703 43.24557227 89.61169268 42.23949555 87.62231445 41.23266602 C60.46971271 27.51509416 34.36497415 17.58987774 3.65917969 17.86523438 C2.75760132 17.86922241 1.85602295 17.87321045 0.92712402 17.87731934 C-13.37309796 17.95139407 -27.29837629 18.76387452 -41.40332031 21.24023438 C-43.21711885 21.53322506 -45.03092096 21.82619366 -46.84472656 22.11914062 C-61.8803106 24.66397905 -76.47200182 28.58844875 -90.22363281 35.27148438 C-92.9074417 36.46428832 -95.4808225 37.00327509 -98.40332031 37.24023438 C-98.40332031 37.90023437 -98.40332031 38.56023438 -98.40332031 39.24023438 C-99.30695313 39.50835937 -100.21058594 39.77648438 -101.14160156 40.05273438 C-107.76036915 41.87818225 -107.76036915 41.87818225 -112.65332031 46.21289062 C-113.02407393 47.5903433 -113.36983581 48.974802 -113.68847656 50.36523438 C-114.64900133 52.88464361 -115.80969361 53.52680906 -118.15332031 54.80273438 C-122.1803232 56.47879819 -125.16797259 56.48592488 -129.40332031 55.24023438 C-132.10578771 53.61875394 -132.40453299 52.23681035 -133.46582031 49.24023438 C-134.04865661 43.64976377 -130.68329401 38.51681547 -127.40332031 34.24023438 C-122.5831395 29.96400603 -116.83831016 27.33677925 -111.02832031 24.67773438 C-110.22910156 24.30455078 -109.42988281 23.93136719 -108.60644531 23.546875 C-106.21080961 22.43240046 -103.80885368 21.3331661 -101.40332031 20.24023438 C-100.62150391 19.88396973 -99.8396875 19.52770508 -99.03417969 19.16064453 C-92.28677015 16.11917696 -85.40706144 13.63082431 -78.40332031 11.24023438 C-77.3965625 10.88832031 -76.38980469 10.53640625 -75.35253906 10.17382812 C-65.99151098 7.07776825 -56.40027987 5.38498638 -46.71435547 3.65869141 C-43.95739167 3.15949048 -41.21313861 2.60219803 -38.46582031 2.05273438 C-25.79823235 -0.15691416 -12.81759021 0.02538975 0 0 Z M167.59667969 226.24023438 C166.91250977 226.39540527 166.22833984 226.55057617 165.5234375 226.71044922 C141.46389079 232.26395871 119.00924911 242.31090241 98.59667969 256.24023438 C97.81808594 256.7584375 97.03949219 257.27664063 96.23730469 257.81054688 C89.57481931 262.56618299 82.02466913 268.9911019 80.12939453 277.28515625 C79.13138131 285.23329755 79.79134945 293.18169158 83.96777344 300.15429688 C87.87117449 305.15289679 93.17506526 310.64101775 99.74047852 311.53076172 C124.00946064 312.00717657 145.81315415 305.17637952 164.59667969 289.24023438 C164.59667969 288.58023438 164.59667969 287.92023438 164.59667969 287.24023438 C165.58667969 286.91023438 166.57667969 286.58023438 167.59667969 286.24023438 C185.21829934 269.98817065 193.46974743 246.12594959 197.59667969 223.24023438 C187.19140056 222.80126166 177.70523358 223.94064672 167.59667969 226.24023438 Z " fill="#FFFFFF" transform="translate(133.4033203125,-0.240234375)"/>
<path d="M0 0 C2.8125 1.5625 2.8125 1.5625 5 4 C7.1044803 11.8166411 5.24783295 19.27224516 2.375 26.625 C2.10993652 27.3173877 1.84487305 28.00977539 1.57177734 28.72314453 C-0.66560134 34.4307432 -3.33432422 39.86455162 -6.15234375 45.30859375 C-8.26229979 49.4394163 -10.09121557 53.6839948 -11.9375 57.9375 C-14.67331486 64.2059498 -17.64419596 70.25164158 -20.92944336 76.24804688 C-24.07035658 82.02127905 -26.86510535 87.93828233 -29.64648438 93.89135742 C-31.68690091 98.2508666 -33.77558358 102.57327016 -35.96923828 106.85766602 C-46.16286084 126.77969539 -54.65593206 147.54212315 -61 169 C-61.66409405 171.16745657 -62.33078199 173.33412001 -63 175.5 C-63.33 176.57636719 -63.66 177.65273438 -64 178.76171875 C-64.65786225 180.89206173 -65.32430208 183.01977803 -66 185.14453125 C-67.67989936 190.46639994 -69.21480698 195.77614647 -70.49975586 201.20532227 C-74.2749604 217.10761139 -74.2749604 217.10761139 -79.25 220.5625 C-84.28552633 221.36360646 -88.01350982 221.34380218 -92.2578125 218.47265625 C-97.71882806 213.84351582 -97.71882806 213.84351582 -99 210 C-99.66 210 -100.32 210 -101 210 C-102.375 208.6015625 -102.375 208.6015625 -104 206.625 C-107.76222012 202.17078591 -111.86058282 198.14316468 -116.05859375 194.1015625 C-118 192 -118 192 -118 190 C-118.99 189.67 -119.98 189.34 -121 189 C-122.47265625 187.50390625 -122.47265625 187.50390625 -124.0625 185.5625 C-129.41416354 179.25842176 -135.16243075 173.17922216 -141.625 168 C-142.40875 167.34 -143.1925 166.68 -144 166 C-144 165.34 -144 164.68 -144 164 C-144.54527344 163.7834375 -145.09054687 163.566875 -145.65234375 163.34375 C-148.78859824 161.54862264 -151.08601348 159.0867754 -153.5625 156.5 C-156.24911113 153.71628244 -158.75839833 151.16106778 -162 149 C-162 148.34 -162 147.68 -162 147 C-162.53238281 146.78730469 -163.06476563 146.57460938 -163.61328125 146.35546875 C-166.91134975 144.48242494 -169.46748139 141.91910159 -172.1875 139.3125 C-176.75533897 134.99609577 -181.38340413 130.98899738 -186.48828125 127.3046875 C-186.98714844 126.87414062 -187.48601562 126.44359375 -188 126 C-188 125.34 -188 124.68 -188 124 C-188.52980469 123.77957031 -189.05960937 123.55914063 -189.60546875 123.33203125 C-192.85692275 121.52331051 -195.52432615 119.12328022 -198.3125 116.6875 C-201.88120537 113.60523154 -205.40790283 110.59390627 -209.3125 107.9375 C-210.199375 107.298125 -211.08625 106.65875 -212 106 C-212 105.34 -212 104.68 -212 104 C-212.56203125 103.75765625 -213.1240625 103.5153125 -213.703125 103.265625 C-216.45389663 101.7498937 -218.45788803 99.89611758 -220.75 97.75 C-224.53319618 94.26429551 -228.37662272 91.12214511 -232.6015625 88.19140625 C-233.06304687 87.79824219 -233.52453125 87.40507813 -234 87 C-234 86.34 -234 85.68 -234 85 C-234.53625 84.773125 -235.0725 84.54625 -235.625 84.3125 C-238.82460161 82.54429911 -241.29037223 80.46329797 -244 78 C-244 77.34 -244 76.68 -244 76 C-244.639375 75.731875 -245.27875 75.46375 -245.9375 75.1875 C-248 74 -248 74 -249 71 C-249.5775 70.71125 -250.155 70.4225 -250.75 70.125 C-253.79225245 68.60387378 -255.73842507 66.51286104 -258 64 C-258 63.34 -258 62.68 -258 62 C-258.66 62 -259.32 62 -260 62 C-260 61.34 -260 60.68 -260 60 C-260.66 60 -261.32 60 -262 60 C-262 59.34 -262 58.68 -262 58 C-262.66 58 -263.32 58 -264 58 C-267 53.61538462 -267 53.61538462 -267 51 C-267.99 50.67 -268.98 50.34 -270 50 C-270.625 47.1875 -270.625 47.1875 -271 44 C-270.34 43.01 -269.68 42.02 -269 41 C-262.55414332 40.23523734 -259.32909194 41.41311119 -254 45 C-253.195625 45.53625 -252.39125 46.0725 -251.5625 46.625 C-251.046875 47.07875 -250.53125 47.5325 -250 48 C-250 48.66 -250 49.32 -250 50 C-249.34 50 -248.68 50 -248 50 C-248 50.66 -248 51.32 -248 52 C-247.1028125 52.433125 -247.1028125 52.433125 -246.1875 52.875 C-244 54 -244 54 -241 56 C-241 56.66 -241 57.32 -241 58 C-240.34 58 -239.68 58 -239 58 C-239 58.66 -239 59.32 -239 60 C-238.4225 60.268125 -237.845 60.53625 -237.25 60.8125 C-234.94449957 62.02929189 -232.97943808 63.30333879 -231 65 C-231 65.66 -231 66.32 -231 67 C-230.401875 67.28875 -229.80375 67.5775 -229.1875 67.875 C-227 69 -227 69 -224 71 C-224 71.66 -224 72.32 -224 73 C-223.47921875 73.21140625 -222.9584375 73.4228125 -222.421875 73.640625 C-218.97621098 75.57464287 -216.20374616 78.14245155 -213.25 80.75 C-209.30514295 84.19571607 -205.37914278 87.56018746 -201.125 90.625 C-200.09375 91.40875 -199.0625 92.1925 -198 93 C-198 93.66 -198 94.32 -198 95 C-197.443125 95.2475 -196.88625 95.495 -196.3125 95.75 C-193.57805328 97.22807931 -191.38859188 99.00950676 -189 101 C-188.02675781 101.80695313 -187.05351562 102.61390625 -186.05078125 103.4453125 C-184.06805158 105.10562647 -182.08622927 106.76702482 -180.10546875 108.4296875 C-174.11537988 113.44949424 -168.06437489 118.36000097 -161.89526367 123.15771484 C-160.25845594 124.43219776 -158.62797758 125.71426211 -157 127 C-156.4234668 127.45036621 -155.84693359 127.90073242 -155.25292969 128.36474609 C-153.79701977 129.53024164 -152.39330327 130.76033894 -151 132 C-151 132.66 -151 133.32 -151 134 C-150.443125 134.2475 -149.88625 134.495 -149.3125 134.75 C-144.49171122 137.35583177 -140.80151417 141.11007852 -137 145 C-135.73243952 146.29487859 -134.46130689 147.58626568 -133.1875 148.875 C-132.28064453 149.79925781 -132.28064453 149.79925781 -131.35546875 150.7421875 C-129.42343103 152.59412416 -127.45991893 154.33390944 -125.4296875 156.07421875 C-120.53478175 160.33006578 -115.95561713 164.89380368 -111.3815918 169.48803711 C-109.93974779 170.93524385 -108.49262884 172.37702026 -107.04492188 173.81835938 C-102.28715271 178.57388906 -97.65977328 183.37856753 -93.34204102 188.54125977 C-92.04316036 190.12652308 -92.04316036 190.12652308 -90 191 C-89.79246094 190.18402344 -89.58492187 189.36804688 -89.37109375 188.52734375 C-81.40445026 157.89409955 -71.2553715 127.9971583 -56.875 99.75 C-54.69688439 95.44030971 -52.66940729 91.06172368 -50.625 86.6875 C-47.7876856 80.63175737 -44.81569255 74.68923112 -41.625 68.8125 C-36.79267127 59.89359219 -32.64739213 50.67746708 -28.48046875 41.43359375 C-26.99569662 38.14324078 -25.46557864 34.89465525 -23.82421875 31.6796875 C-22.17152531 28.42471048 -20.85758308 25.12736838 -19.625 21.6875 C-10.72625775 -1.78770962 -10.72625775 -1.78770962 0 0 Z " fill="#FFFFFF" transform="translate(664,481)"/>
</svg>
