<?xml version="1.0" encoding="UTF-8"?>
<svg version="1.1" xmlns="http://www.w3.org/2000/svg" width="512" height="512">
<path d="M0 0 C6.03847381 3.55204342 11.64991644 7.71453451 13.73425293 14.71002197 C16.17186904 26.35352872 12.27001449 37.52796915 9.15625 48.640625 C8.69816492 50.31586692 8.24145591 51.99148574 7.78613281 53.66748047 C6.10319656 59.8245506 4.39379694 65.97436281 2.6875 72.125 C-1.1075 85.9025 -4.9025 99.68 -8.8125 113.875 C45.3075 114.205 99.4275 114.535 155.1875 114.875 C155.5175 112.235 155.8475 109.595 156.1875 106.875 C156.46075502 105.53787671 156.76156602 104.20532535 157.11604309 102.8874054 C157.38710121 101.86414909 157.38710121 101.86414909 157.66363525 100.82022095 C157.85947205 100.10264618 158.05530884 99.38507141 158.25708008 98.64575195 C158.56952919 97.47563316 158.56952919 97.47563316 158.88829041 96.28187561 C159.57268173 93.72425275 160.26469824 91.16876471 160.95703125 88.61328125 C161.43966443 86.81750539 161.92189118 85.02162026 162.4037323 83.22563171 C163.4134047 79.46666408 164.42661853 75.70867595 165.44262695 71.95141602 C166.73551313 67.1698955 168.02169936 62.38660672 169.30545521 57.60262775 C170.30129676 53.89315748 171.29969001 50.1843779 172.2989254 46.47582054 C172.77342782 44.71436853 173.24741106 42.95277657 173.72083473 41.19103432 C183.05025101 6.50706672 183.05025101 6.50706672 192.8125 0.875 C199.47509341 -2.06614484 205.99381968 -2.41263706 212.9609375 -0.2734375 C219.73861961 2.71851226 224.08352031 7.01138184 227.02734375 13.81640625 C230.51040224 25.08512491 225.28260661 37.80685414 222.3125 48.68359375 C221.82241702 50.50039619 221.33300743 52.3173804 220.84423828 54.13453674 C219.56276265 58.89123232 218.27172631 63.64528185 216.97875977 68.39886475 C215.66188759 73.24794891 214.35504905 78.09973556 213.046875 82.95117188 C211.13752076 90.02398184 209.22602777 97.09620712 207.3046875 104.16577148 C207.10413757 104.90603577 206.90358765 105.64630005 206.69696045 106.40899658 C205.92148312 109.25723189 205.12122483 112.0738255 204.1875 114.875 C205.09237152 114.86611755 205.99724304 114.85723511 206.92953491 114.8480835 C215.49116336 114.76766362 224.05266345 114.70689697 232.61458397 114.66775131 C237.01551917 114.64694894 241.41614013 114.61876723 245.81689453 114.57324219 C250.07038043 114.52952006 254.32356564 114.50580772 258.57725906 114.49549103 C260.19345452 114.48814664 261.80963503 114.47380562 263.42570114 114.45207977 C273.32252748 114.32442031 282.5455777 114.3271043 290.625 120.83984375 C291.140625 121.49082031 291.65625 122.14179688 292.1875 122.8125 C292.72375 123.46089844 293.26 124.10929687 293.8125 124.77734375 C298.1366631 131.37414939 297.8726422 138.21701821 297.1875 145.875 C295.53928351 152.14217047 291.52748613 156.38938919 286.1875 159.875 C280.25237472 162.52914145 274.7127258 163.30559458 268.27124023 163.21557617 C267.01105827 163.21623329 267.01105827 163.21623329 265.72541809 163.21690369 C262.98206341 163.21483392 260.23934005 163.19158967 257.49609375 163.16796875 C255.58081903 163.16236633 253.66553998 163.15809929 251.7502594 163.15510559 C246.73444535 163.14370767 241.71889618 163.11428443 236.70318604 163.08099365 C231.57494692 163.05018334 226.44666457 163.03657692 221.31835938 163.02148438 C211.27462387 162.98940951 201.23108405 162.93827488 191.1875 162.875 C190.94914429 163.91348083 190.71078857 164.95196167 190.46520996 166.02191162 C188.12899027 176.12173257 185.57252878 186.14052762 182.84375 196.140625 C182.43306301 197.6543657 182.02265494 199.1681821 181.61250305 200.68206787 C180.75028134 203.86269087 179.88643653 207.04286603 179.02114868 210.22265625 C176.99709226 217.66081583 174.98056506 225.10101775 172.96378517 232.54115295 C172.51686385 234.18973261 172.06983107 235.83828206 171.62268639 237.48680115 C167.19969566 253.79391118 162.83914496 270.11721445 158.52734375 286.45410156 C158.08724976 288.11523707 157.64714629 289.77637007 157.20703125 291.4375 C157.01321365 292.1765155 156.81939606 292.91553101 156.6197052 293.67694092 C155.30042274 298.64915452 155.30042274 298.64915452 154.1875 300.875 C155.11964828 300.86833817 156.05179657 300.86167633 157.01219177 300.85481262 C165.82432069 300.7938283 174.63640643 300.74894452 183.448699 300.71956348 C187.97850319 300.70395027 192.50813613 300.68279195 197.0378418 300.64868164 C201.41450227 300.61593247 205.79099868 300.59811436 210.16777229 300.59036827 C211.83222089 300.58485256 213.49666116 300.57408208 215.16103935 300.55780983 C226.66095514 300.44991457 236.63393737 300.46285055 245.45703125 308.86328125 C250.20464808 314.38251977 251.83643491 320.24218684 251.51171875 327.453125 C250.50981902 334.93719527 247.36019135 340.40735118 241.375 345.0625 C235.07407837 348.64537701 229.19126811 349.16423416 222.13110352 349.10205078 C221.25225998 349.10234283 220.37341644 349.10263489 219.46794128 349.10293579 C216.5839933 349.1015505 213.7003087 349.08602719 210.81640625 349.0703125 C208.8085901 349.06657952 206.80077212 349.06373389 204.79295349 349.06173706 C199.52400632 349.05412305 194.25517047 349.03449378 188.98626709 349.0123291 C183.60349025 348.99182251 178.22069532 348.98272506 172.83789062 348.97265625 C162.28771167 348.95124575 151.73761511 348.91713683 141.1875 348.875 C140.95748291 349.87808701 140.72746582 350.88117401 140.49047852 351.91465759 C137.91236771 363.06523411 135.07456408 374.13392039 132.125 385.19140625 C131.89094452 386.07050093 131.65688904 386.9495956 131.41574097 387.85532951 C130.1820307 392.48838427 128.94533986 397.12063074 127.70605469 401.75219727 C126.43429412 406.50753374 125.17307236 411.26560103 123.91410828 416.02433872 C122.9350184 419.71747126 121.94818547 423.40850295 120.95925903 427.09901237 C120.490733 428.85279602 120.02508072 430.60735021 119.56246948 432.36270332 C118.91572751 434.81382088 118.25800462 437.26174686 117.59765625 439.70922852 C117.41260529 440.4205191 117.22755432 441.13180969 117.03689575 441.86465454 C115.19674161 448.59876845 112.75033452 455.19724786 107.25 459.75 C106.60160156 460.30429687 105.95320313 460.85859375 105.28515625 461.4296875 C99.27274349 465.57231826 93.26039012 465.46833166 86.1875 464.875 C79.24668077 462.82688941 73.49037627 458.55524068 69.75 452.3125 C64.77268108 440.31329047 69.90291535 426.81050971 73.21875 415.01171875 C73.67695117 413.33752607 74.13365972 411.66292417 74.58886719 409.98791504 C76.27040691 403.84115624 77.98062703 397.70227233 79.6875 391.5625 C83.4825 377.805625 87.2775 364.04875 91.1875 349.875 C37.0675 349.545 -17.0525 349.215 -72.8125 348.875 C-73.1425 351.515 -73.4725 354.155 -73.8125 356.875 C-74.11846045 358.36048225 -74.45511858 359.84048591 -74.84147644 361.30711365 C-75.044534 362.08762085 -75.24759155 362.86812805 -75.45680237 363.67228699 C-75.67754929 364.49900406 -75.8982962 365.32572113 -76.12573242 366.17749023 C-76.36007996 367.07128387 -76.59442749 367.96507751 -76.83587646 368.88595581 C-77.60727447 371.82011459 -78.38686011 374.75200608 -79.16796875 377.68359375 C-79.43537683 378.69105211 -79.70278492 379.69851048 -79.97829628 380.73649788 C-81.39280652 386.06525753 -82.81350605 391.39232047 -84.23950195 396.71801758 C-85.70588345 402.19911875 -87.15169348 407.68542398 -88.59273815 413.17323208 C-89.70966651 417.41178149 -90.84161935 421.64621433 -91.97762489 425.87968636 C-92.51698164 427.89987149 -93.05079508 429.92154555 -93.57878685 431.94473076 C-94.3207887 434.78203213 -95.08397613 437.61284395 -95.85229492 440.44311523 C-96.06292068 441.26780807 -96.27354645 442.09250092 -96.49055481 442.94218445 C-98.89948699 451.63167861 -103.03748846 458.4880112 -110.98046875 463 C-117.08137257 465.91386451 -124.18548761 465.95753926 -130.61328125 464.0390625 C-137.36159623 460.98747242 -141.70521148 456.74626695 -144.65234375 449.93359375 C-148.13540224 438.66487509 -142.90760661 425.94314586 -139.9375 415.06640625 C-139.44741702 413.24960381 -138.95800743 411.4326196 -138.46923828 409.61546326 C-137.18776265 404.85876768 -135.89672631 400.10471815 -134.60375977 395.35113525 C-133.28688759 390.50205109 -131.98004905 385.65026444 -130.671875 380.79882812 C-128.76252076 373.72601816 -126.85102777 366.65379288 -124.9296875 359.58422852 C-124.72913757 358.84396423 -124.52858765 358.10369995 -124.32196045 357.34100342 C-123.54648312 354.49276811 -122.74622483 351.6761745 -121.8125 348.875 C-122.71737152 348.88388245 -123.62224304 348.89276489 -124.55453491 348.9019165 C-133.11616336 348.98233638 -141.67766345 349.04310303 -150.23958397 349.08224869 C-154.64051917 349.10305106 -159.04114013 349.13123277 -163.44189453 349.17675781 C-167.69538043 349.22047994 -171.94856564 349.24419228 -176.20225906 349.25450897 C-177.81845452 349.26185336 -179.43463503 349.27619438 -181.05070114 349.29792023 C-190.94752748 349.42557969 -200.1705777 349.4228957 -208.25 342.91015625 C-208.765625 342.25917969 -209.28125 341.60820312 -209.8125 340.9375 C-210.34875 340.28910156 -210.885 339.64070313 -211.4375 338.97265625 C-215.7616631 332.37585061 -215.4976422 325.53298179 -214.8125 317.875 C-213.16428351 311.60782953 -209.15248613 307.36061081 -203.8125 303.875 C-197.87737472 301.22085855 -192.3377258 300.44440542 -185.89624023 300.53442383 C-185.05611893 300.53398575 -184.21599762 300.53354767 -183.35041809 300.53309631 C-180.60706341 300.53516608 -177.86434005 300.55841033 -175.12109375 300.58203125 C-173.20581903 300.58763367 -171.29053998 300.59190071 -169.3752594 300.59489441 C-164.35944535 300.60629233 -159.34389618 300.63571557 -154.32818604 300.66900635 C-149.19994692 300.69981666 -144.07166457 300.71342308 -138.94335938 300.72851562 C-128.89962387 300.76059049 -118.85608405 300.81172512 -108.8125 300.875 C-108.57414429 299.83651917 -108.33578857 298.79803833 -108.09020996 297.72808838 C-105.75399027 287.62826743 -103.19752878 277.60947238 -100.46875 267.609375 C-100.05806301 266.0956343 -99.64765494 264.5818179 -99.23750305 263.06793213 C-98.37528134 259.88730913 -97.51143653 256.70713397 -96.64614868 253.52734375 C-94.62209226 246.08918417 -92.60556506 238.64898225 -90.58878517 231.20884705 C-90.14186385 229.56026739 -89.69483107 227.91171794 -89.24768639 226.26319885 C-84.82469566 209.95608882 -80.46414496 193.63278555 -76.15234375 177.29589844 C-75.71224976 175.63476293 -75.27214629 173.97362993 -74.83203125 172.3125 C-74.63821365 171.5734845 -74.44439606 170.83446899 -74.2447052 170.07305908 C-72.92542274 165.10084548 -72.92542274 165.10084548 -71.8125 162.875 C-72.74464828 162.88166183 -73.67679657 162.88832367 -74.63719177 162.89518738 C-83.44932069 162.9561717 -92.26140643 163.00105548 -101.073699 163.03043652 C-105.60350319 163.04604973 -110.13313613 163.06720805 -114.6628418 163.10131836 C-119.03950227 163.13406753 -123.41599868 163.15188564 -127.79277229 163.15963173 C-129.45722089 163.16514744 -131.12166116 163.17591792 -132.78603935 163.19219017 C-144.28595514 163.30008543 -154.25893737 163.28714945 -163.08203125 154.88671875 C-167.82964808 149.36748023 -169.46143491 143.50781316 -169.13671875 136.296875 C-168.13481902 128.81280473 -164.98519135 123.34264882 -159 118.6875 C-152.69907837 115.10462299 -146.81626811 114.58576584 -139.75610352 114.64794922 C-138.87725998 114.64765717 -137.99841644 114.64736511 -137.09294128 114.64706421 C-134.2089933 114.6484495 -131.3253087 114.66397281 -128.44140625 114.6796875 C-126.4335901 114.68342048 -124.42577212 114.68626611 -122.41795349 114.68826294 C-117.14900632 114.69587695 -111.88017047 114.71550622 -106.61126709 114.7376709 C-101.22849025 114.75817749 -95.84569532 114.76727494 -90.46289062 114.77734375 C-79.91271167 114.79875425 -69.36261511 114.83286317 -58.8125 114.875 C-58.58248291 113.87191299 -58.35246582 112.86882599 -58.11547852 111.83534241 C-55.53736771 100.68476589 -52.69956408 89.61607961 -49.75 78.55859375 C-49.51594452 77.67949907 -49.28188904 76.8004044 -49.04074097 75.89467049 C-47.8070307 71.26161573 -46.57033986 66.62936926 -45.33105469 61.99780273 C-44.05929412 57.24246626 -42.79807236 52.48439897 -41.53910828 47.72566128 C-40.5600184 44.03252874 -39.57318547 40.34149705 -38.58425903 36.65098763 C-38.115733 34.89720398 -37.65008072 33.14264979 -37.18746948 31.38729668 C-36.54072751 28.93617912 -35.88300462 26.48825314 -35.22265625 24.04077148 C-34.9450798 22.9738356 -34.9450798 22.9738356 -34.66189575 21.88534546 C-32.82174161 15.15123155 -30.37533452 8.55275214 -24.875 4 C-24.22660156 3.44570313 -23.57820312 2.89140625 -22.91015625 2.3203125 C-16.03524249 -2.4165927 -7.81004757 -2.3046042 0 0 Z M-22.8125 162.875 C-29.52217082 187.89006587 -29.52217082 187.89006587 -36.22949219 212.90576172 C-40.4253657 228.55581381 -44.62126733 244.2057344 -48.87004471 259.84152222 C-49.70328115 262.90872033 -50.53481079 265.97638136 -51.36669922 269.04394531 C-52.55566223 273.42759339 -53.75096712 277.80944651 -54.94970703 282.19042969 C-55.47453486 284.12428086 -55.99912829 286.05819566 -56.5234375 287.9921875 C-56.87804047 289.2769548 -56.87804047 289.2769548 -57.23980713 290.587677 C-57.44990417 291.36682465 -57.66000122 292.14597229 -57.87646484 292.94873047 C-58.14999283 293.95007523 -58.14999283 293.95007523 -58.42904663 294.97164917 C-58.94416285 297.2049373 -58.94416285 297.2049373 -58.8125 300.875 C-4.6925 300.875 49.4275 300.875 105.1875 300.875 C113.29414562 270.61889349 113.29414562 270.61889349 121.39990234 240.36254883 C122.98892212 234.43327332 122.98892212 234.43327332 123.74974442 231.59461021 C124.57211821 228.525345 125.39375922 225.45588404 126.21542358 222.38642883 C128.87797136 212.44588377 131.55387335 202.50940777 134.27050781 192.58349609 C134.74538606 190.84414655 135.22021068 189.10478237 135.69497681 187.36540222 C136.56616407 184.17414675 137.44379046 180.98476205 138.32528687 177.79634094 C138.71010569 176.38862733 139.0946931 174.98085043 139.47900391 173.57299805 C139.97734238 171.76438545 139.97734238 171.76438545 140.48574829 169.91923523 C141.33725152 166.74604877 141.33725152 166.74604877 141.1875 162.875 C87.0675 162.875 32.9475 162.875 -22.8125 162.875 Z " fill="#006fee" transform="translate(214.8125,24.125)"/>
</svg>
